inDegrees=no
num_controls=7
num_derivatives=13
num_iterations=79
num_multipliers=7
num_parameters=0
num_slacks=7
num_states=26
objective=0.454590
objective_accelerations=0.045160
objective_balance=0.000846
objective_effort=0.036659
objective_height=0.365823
objective_ligament=0.006102
solver_duration=898.379487
status=Solve_Succeeded
success=true
DataType=double
version=3
OpenSimVersion=4.5
endheader
time	/jointset/ground_pelvis/pelvis_tilt/value	/jointset/ground_pelvis/pelvis_tx/value	/jointset/ground_pelvis/pelvis_ty/value	/jointset/hip_r/hip_flexion_r/value	/jointset/hip_r/hip_adduction_r/value	/jointset/hip_r/hip_rotation_r/value	/jointset/back/lumbar_extension/value	/jointset/patellofemoral_r/patellar_flexion_r/value	/jointset/knee_r/knee_flexion_r/value	/jointset/knee_r/knee_adduction_r/value	/jointset/knee_r/knee_rotation_r/value	/jointset/ankle_r/ankle_angle_r/value	/jointset/subtalar_r/subtalar_angle_r/value	/jointset/ground_pelvis/pelvis_tilt/speed	/jointset/ground_pelvis/pelvis_tx/speed	/jointset/ground_pelvis/pelvis_ty/speed	/jointset/hip_r/hip_flexion_r/speed	/jointset/hip_r/hip_adduction_r/speed	/jointset/hip_r/hip_rotation_r/speed	/jointset/back/lumbar_extension/speed	/jointset/patellofemoral_r/patellar_flexion_r/speed	/jointset/knee_r/knee_flexion_r/speed	/jointset/knee_r/knee_adduction_r/speed	/jointset/knee_r/knee_rotation_r/speed	/jointset/ankle_r/ankle_angle_r/speed	/jointset/subtalar_r/subtalar_angle_r/speed	/forceset/tau_hip_flexion_r	/forceset/tau_hip_adduction_r	/forceset/tau_hip_rotation_r	/forceset/tau_knee_flexion_r	/forceset/tau_ankle_angle_r	/forceset/tau_subtalar_angle_r	/forceset/tau_lumbar_extension	lambda_cid13_p0	lambda_cid14_p0	lambda_cid14_p1	lambda_cid14_p2	lambda_cid14_p3	lambda_cid14_p4	lambda_cid14_p5	/jointset/ground_pelvis/pelvis_tilt/accel	/jointset/ground_pelvis/pelvis_tx/accel	/jointset/ground_pelvis/pelvis_ty/accel	/jointset/hip_r/hip_flexion_r/accel	/jointset/hip_r/hip_adduction_r/accel	/jointset/hip_r/hip_rotation_r/accel	/jointset/back/lumbar_extension/accel	/jointset/patellofemoral_r/patellar_flexion_r/accel	/jointset/knee_r/knee_flexion_r/accel	/jointset/knee_r/knee_adduction_r/accel	/jointset/knee_r/knee_rotation_r/accel	/jointset/ankle_r/ankle_angle_r/accel	/jointset/subtalar_r/subtalar_angle_r/accel	gamma_cid13_p0	gamma_cid14_p0	gamma_cid14_p1	gamma_cid14_p2	gamma_cid14_p3	gamma_cid14_p4	gamma_cid14_p5
0.5	-0.1245613167755399	0.03206399509473816	0.8129158294678291	0.8542313648181465	-0.2517012922590947	-0.05467595804899262	-0.6454221159004685	0.943336836004215	0.9433368360042157	0.06262307657409885	0.1739520201149053	0.2888568369839223	0.09107999580231899	-0.3205501909183044	-0.1929924187458338	-0.4679739874623171	1.760051543423067	-0.03796997813909433	0.5035123085227013	-0.7298151184230968	1.888619604470926	1.888619604470898	-0.08576150662372278	-0.004218886251701878	0.5267960176871456	0.1120280468875104	-0.188239749206528	0.004755658495561027	0.03543676596506064	-0.2950212886082904	0.003788669498016294	-0.01557593615745311	0.235047193759618	-8.553167511681186	-42.19918029165875	-12.99732313867113	1.173544687535137	-4.109183041478905	-644.2862861992152	57.38297827063656	0.2432771708752638	0.5504435120025167	-0.363967587009017	-1.202513167945107	0.2125531984823364	-0.1692011334705196	1.74921452241081	-1.403444802722368	-1.403444802722255	0.4477939970838599	-8.184942447785233e-05	-0.481745594530796	0.2361000024478013	-6.029645901338215e-08	1.861196851681985e-08	1.259757812160257e-06	-2.15419340112416e-08	-1.411004868044888e-07	-1.272836514751079e-07	8.239577485755824e-07
0.51	-0.1277539744093373	0.03016173896697395	0.8082189596112068	0.8717690337152262	-0.2520707241919029	-0.04965125640502884	-0.6526322309024964	0.9621500256462117	0.962150025646216	0.06178747685215563	0.1739114584682139	0.2940996774486038	0.09221130132442229	-0.3179320443722198	-0.1874452587541944	-0.4712959725441688	1.747246935071962	-0.03591032825311755	0.5013614206557824	-0.712126271285181	1.873760999538575	1.87376099953855	-0.08139216420130972	-0.003889839555418749	0.5216943150896567	0.1142242529010503	-0.1942124375112412	0.005966140836294512	0.03613410643874437	-0.2997587860715664	0.002663502684366661	-0.01547858696940743	0.2406646980053012	-7.607049412861563	-42.85582586933978	-13.22649543469718	1.388815640615626	-3.97348007183794	-648.8349191807679	57.4629089738711	0.2784816337257895	0.5588530768969374	-0.3007378714252991	-1.354725313371508	0.2036723087478043	-0.2481334960167805	1.790961414191367	-1.565655060431392	-1.565655060431124	0.4266340860403193	0.04998096259163047	-0.5360843298206704	0.2102785104352284	-5.643705449148033e-08	2.78193669398582e-08	1.3524626187829e-06	4.371531236405599e-08	-1.57015869203335e-07	-1.217678423569266e-07	8.933060904613248e-07
0.52	-0.1309189709302296	0.02831535460595654	0.8034919851232357	0.8891715983998575	-0.2524193593408302	-0.0446500838162807	-0.6596630091122041	0.9808069118944998	0.9808069118945048	0.06099459649868443	0.1738743038951685	0.2992891605398177	0.09336434842858693	-0.3150179683360908	-0.1818180653964721	-0.4739949137321074	1.733030700933732	-0.0338106213634415	0.4988064974802945	-0.6939477599588814	1.857358925728622	1.857358925728599	-0.07721763293008702	-0.003537471521658651	0.5161245429936565	0.1163763632997154	-0.2001851258159403	0.007176623177022888	0.03683144691242053	-0.3044962835348418	0.001538335870713764	-0.01538123778137063	0.246282202250997	-6.719680754743566	-43.51169020660764	-13.4506603458457	1.597724764865937	-3.863077901935047	-653.3724556267891	57.57539963861344	0.3024630688842712	0.5664501852190387	-0.2393588082264163	-1.484838325369894	0.2205645992221836	-0.250008195184315	1.847147360087665	-1.712138578242829	-1.712138578242753	0.4088317668457745	0.004582418070937989	-0.5753594942331074	0.2272808794728029	-4.98794920686703e-08	3.118922837181137e-08	1.314747725765826e-06	8.072229952656595e-08	-1.573146294678831e-07	-1.091729945124601e-07	8.802469429953686e-07
0.53	-0.1340533832543266	0.02652558762880184	0.7987411522556525	0.9064250931657304	-0.2527468186751036	-0.03967650321207626	-0.6665096545424695	0.9992922531944568	0.9992922531944614	0.06024236928054288	0.1738407628924556	0.3044206974087127	0.09453867891611512	-0.3118145310978046	-0.1761267428146367	-0.4760652675391558	1.717439104163445	-0.03168045423351343	0.4958415325464642	-0.6753137857230072	1.839466838262807	1.839466838262817	-0.07326061751049556	-0.003164276030395122	0.5101120119476759	0.1184743010042271	-0.2060566133755819	0.008314013134641285	0.03748601417659476	-0.3093069983353335	0.0003617269802161621	-0.0153226947905905	0.2517793744697261	-5.891767131058123	-44.1924724973836	-13.69550750398298	1.809321061265369	-3.685675081010728	-657.9528634623526	57.6705024835515	0.3367834471436569	0.5717298831848068	-0.1749353416508027	-1.630687571011209	0.2094514315796638	-0.3300506384531089	1.881653511113777	-1.864108943743612	-1.864108943738583	0.384390902003422	0.05471450291653332	-0.6248588828735099	0.1989504225147133	-4.364562782150455e-08	3.373246581233555e-08	1.267776724878597e-06	1.116277264464336e-07	-1.563403191016158e-07	-9.664978817840591e-08	8.617136952618904e-07
